<svg id="svg" version="1.1" viewBox="0 0 300 300" width="300" height="300" xmlns="http://www.w3.org/2000/svg"><svg xmlns="http://www.w3.org/2000/svg"><defs><clipPath id="clip-1"><rect x="0" y="0" transform="scale(0.14648,0.14648)" width="2048" height="2048" fill="none"/></clipPath></defs><g clip-path="url(#clip-1)" fill="none" fill-rule="nonzero" stroke="none" stroke-width="1" stroke-linecap="butt" stroke-linejoin="miter" stroke-miterlimit="10" stroke-dasharray="" stroke-dashoffset="0" font-family="none" font-weight="none" font-size="none" text-anchor="none" style="mix-blend-mode: normal"><path d="M148.85596,11.72208c0.32959,-0.00422 1.67285,-0.01258 1.93213,0.09832c2.06396,0.91601 3.87305,2.38793 5.80664,3.55724c22.69189,13.72427 49.06494,22.08589 75.2915,25.52095c6.14648,0.78706 12.32227,1.33286 18.51123,1.63608c3.375,0.13916 6.80273,0.2499 10.18799,0.27246c0.65039,0.00439 1.33154,0.3646 1.85156,0.78149c0.98877,0.7916 1.0166,2.09839 1.0957,3.26792c-0.02637,6.98203 -0.02783,13.98691 -0.0293,20.97026l0.00732,43.59917v25.95659c-0.00146,8.11494 0.06885,15.47681 -0.63574,23.58325c-2.34375,29.84619 -14.96484,57.95654 -35.71436,79.53955c-3.60791,3.74121 -8.61475,8.75537 -13.07666,11.20459c-4.72852,2.59424 -11.89307,1.16309 -15.18164,-3.13916c-2.05371,-2.4873 -3.08789,-5.60889 -4.54102,-8.48437c-3.92285,-7.76367 -7.84717,-15.53906 -11.73926,-23.32031c-1.03711,-2.07129 -1.86328,-4.30371 -2.92529,-6.35303c-7.75928,-14.96777 -15.30322,-30.81299 -27.18604,-43.01953c-7.72808,-7.80762 -17.65312,-11.96777 -28.54365,-11.5459c-9.11484,0.35156 -18.30249,3.39844 -24.72759,10.16016c-5.77222,6.09375 -8.53389,13.8999 -8.27886,22.26123c0.49453,16.20996 12.53848,23.73779 24.91392,31.19531c8.49331,5.1167 16.95981,10.18945 25.10083,15.80127c1.74683,1.2041 4.70083,3.22998 6.13154,4.62305c13.10596,10.0459 18.79834,26.45801 9.56104,41.23975c4.0957,-2.39355 6.30469,-3.3999 10.11475,-6.67822c8.91797,-7.53662 13.14697,-18.14355 14.25146,-29.54004c0.85547,-8.83301 -0.07324,-18.02344 0.55371,-26.81982c1.28467,2.19434 4.11035,7.05615 4.8999,9.37646c0.40283,1.18066 0.2168,7.32129 0.24902,8.75391c0.26221,11.59131 -1.35645,22.44434 -7.56445,32.4668c-4.95703,8.00244 -12.06006,13.65088 -20.44043,17.81543c-2.77734,1.37988 -6.16113,2.83447 -9.18604,3.5625c-0.03516,-0.00732 -0.2915,-0.05566 -0.33545,-0.07178c-5.37495,-1.96875 -11.23916,-5.19727 -16.30342,-7.69189c-8.57651,-4.26855 -16.93696,-8.95898 -25.05103,-14.05371c-21.96079,-13.78418 -39.45498,-28.63184 -53.01562,-51.14795c-8.01665,-13.41357 -13.52227,-28.17627 -16.24717,-43.56299c-1.21787,-6.81006 -1.9604,-13.69629 -2.22231,-20.60889c-0.33516,-9.13784 -0.05962,-19.19004 -0.05479,-28.43672l0.01377,-53.20327l-0.00542,-18.40605c-0.01113,-2.57651 -0.25518,-5.37803 0.03867,-7.91821c0.10283,-0.89033 1.2501,-1.90225 2.14468,-2.07275c1.89067,-0.36035 3.89004,-0.05786 5.8062,-0.10063c31.34883,-0.82061 62.59028,-7.94282 90.39888,-22.6645c2.91504,-1.54321 5.83828,-3.29736 8.6707,-5.01035c1.83325,-1.10875 3.5666,-2.37561 5.47236,-3.39365zM42.10664,48.60322c0.19658,2.97085 0.07544,6.87437 0.07427,9.94365l-0.00146,17.41626l-0.00923,54.1125c-0.00718,9.70781 -0.2855,19.50103 0.40913,29.14409c2.37144,32.91797 17.51074,63.31055 42.3293,85.13672c17.64976,15.52295 42.28271,29.43018 63.92681,39.23584c4.59375,-5.12256 6.9917,-11.84473 6.67676,-18.71924c-0.51709,-12.49512 -9.72305,-19.7373 -19.27104,-26.14014c-6.85518,-4.59814 -13.90796,-8.79932 -20.94404,-13.11035c-14.9521,-8.9502 -28.99746,-17.80078 -29.99443,-37.23047c-0.4626,-9.01318 2.90156,-18.69434 9.03838,-25.48389c7.06025,-7.81201 17.5793,-11.92383 27.97764,-12.64014c0.42612,-0.0293 1.08486,0.00879 1.52432,0.03369l0.08745,-0.1333c-5.72754,-4.03916 -11.06206,-8.38008 -12.36021,-15.71675c-2.31284,-13.0708 8.56128,-20.41772 2.36411,-34.81919c-1.46733,-3.41016 -4.02261,-6.69741 -7.05117,-8.86069c-4.81187,-3.4374 -11.13135,-4.61104 -16.9106,-3.62681c-5.08345,0.86587 -10.20806,3.65171 -13.18008,7.94355c-0.49395,0.71338 -0.88594,1.45474 -1.24775,2.24194c1.8208,-0.39009 4.71401,-0.98071 6.39141,-1.66699c4.74258,-1.94033 9.03765,-5.24561 14.1832,-1.80718c1.7625,1.18066 2.9792,3.01772 3.37837,5.10117c0.42246,2.13047 -0.05903,4.34048 -1.3292,6.10225c-1.41416,1.96157 -3.55942,3.27056 -5.95063,3.63076c-4.39878,0.67749 -8.86992,-1.18462 -10.54849,-5.48423c0.15293,-0.68115 0.21694,-1.29785 0.62227,-1.84614l0.24873,-0.00103l0.13198,0.18384c0.6813,0.93618 0.87363,1.25801 2.06162,0.80801c0.12832,-0.40781 0.30557,-1.20879 0.61567,-1.39131c0.17666,0.58359 0.19146,0.81343 0.25957,1.42866l0.1292,0.14575c1.44507,1.59976 2.59497,1.84878 4.51787,2.09941c2.29219,0.29883 5.37407,-2.1416 4.9875,-4.2999c-1.01953,-5.69238 -5.85439,-3.88623 -9.13403,-1.55054c-1.01997,0.72627 -3.87935,1.41167 -5.06426,1.98267c-1.57134,0.45278 -3.11631,0.89414 -4.73364,1.1625c-0.62871,0.10444 -1.52036,-0.30454 -1.96948,-0.25356c-3.96606,0.44912 -8.49023,2.66543 -11.12988,5.61211c-2.50576,2.79727 -2.41143,5.06719 -2.88501,8.42051c3.75059,-3.36182 7.64429,-4.36421 12.64219,-4.08618c3.96797,0.22061 9.2543,1.85625 11.9373,4.9147c1.80732,2.06016 2.71289,4.65615 2.49727,7.39321c-0.37852,4.80645 -3.62827,8.36558 -6.03735,12.2814c-4.5293,7.3623 -7.52915,16.37651 -7.12925,25.07036c0.16304,3.54785 1.01909,7.06348 1.83281,10.50586c0.84624,3.58154 5.80312,18.84961 3.19966,20.99561c-0.25313,0.20801 -0.5896,0.31934 -0.91567,0.25635c-0.80229,-0.15527 -1.43262,-1.10742 -1.79165,-1.76953c-1.54424,-2.85059 -2.80312,-8.15918 -3.70122,-11.37305c-3.67969,-13.16602 -6.40371,-20.59424 -1.96802,-34.46162c0.99492,-3.1106 2.34126,-6.31479 3.91333,-9.18208c0.76113,-1.38882 1.57822,-2.74629 2.44922,-4.06904c2.05649,-3.06519 5.79009,-7.42031 4.06538,-11.37759c-0.68599,-1.57383 -3.94761,-2.9209 -5.49448,-3.28828c-4.33447,-1.02964 -10.45327,-1.30239 -13.10127,3.06841c-0.78193,1.29053 -0.83027,4.60107 -2.80591,4.25068c-1.60576,-0.56133 -2.93628,-3.21284 -3.68979,-4.55405c-1.75957,-3.13169 -1.58804,-7.43423 -0.54624,-10.74551c2.05283,-6.52559 7.37344,-10.07417 13.6377,-12.03223c3.22573,-7.10874 7.35527,-11.63525 14.83652,-14.43516c7.04443,-2.61328 14.83462,-2.34844 21.68511,0.73755c6.4582,3.01582 11.45098,8.4772 13.8772,15.17915c1.85786,5.01958 2.27769,10.45811 1.21216,15.70327c-1.373,6.50522 -6.22383,14.45068 -3.14678,21.24243c4.35044,9.60264 17.77544,13.35762 26.4564,18.16523c3.92827,2.20166 7.5728,4.87646 10.85259,7.96436c11.41992,10.81787 19.4165,25.54834 26.57813,39.46729c-0.1333,-3.00293 0.08057,-7.12939 0.0835,-10.26416l0.30908,-32.15332l0.14795,-29.62368c0,-6.61099 -0.20508,-14.39077 0.20068,-20.89834c-8.23242,12.00264 -19.9585,25.89287 -35.07422,28.74741c-2.66455,0.50303 -5.7457,0.40327 -8.48188,0.39668c-0.97661,0.85693 -1.94531,1.72295 -2.90596,2.59775c-0.18955,-1.14009 -0.39932,-2.74248 -1.30649,-3.49731c-1.54614,-0.33325 -2.93599,2.85425 -4.28818,1.53223c-0.57129,-0.5584 0.74399,-3.47446 -0.55269,-3.8499c-1.0875,-0.47285 -3.44326,0.104 -4.30972,-0.43066c-0.22734,-0.78574 1.3519,-2.16548 1.83867,-3.00366c-0.89985,-0.8748 -3.92197,-2.35034 -4.10493,-3.02842c0.61553,-0.76479 2.50327,-1.41299 2.31929,-2.3499c-0.2373,-1.20806 -1.90518,-3.12114 -2.27314,-4.27896c0.73799,-0.91318 2.49741,0.07236 3.48735,-0.37441c0.43652,-1.26753 0.06548,-3.2811 0.17388,-4.88423c1.04912,0.48003 2.57959,1.37886 3.65933,1.09834c0.8042,-0.54434 1.35938,-2.69854 2.13809,-3.97163c0.76216,0.89224 1.65176,2.75083 2.58237,3.18589c1.1584,0.09829 2.52305,-1.49854 3.5729,-2.22905c0.4752,1.87046 0.39946,3.47754 0.87319,5.2563c0.1043,0.08862 0.20845,0.1771 0.31274,0.26572c1.17524,0.32432 2.29556,-0.34263 3.2313,0.18882c0.82793,1.59829 -2.28281,2.6647 -1.66157,4.29243c0.42363,1.11021 1.90195,1.35 1.92861,2.75903c-0.3353,0.77197 -1.83062,0.88564 -2.58413,1.33037c-2.13018,1.25713 -4.11094,2.63569 -6.68408,1.54014c-1.18696,-0.50229 -2.11875,-1.46543 -2.58164,-2.66836c-0.81357,-2.1375 -0.05215,-4.23955 1.98135,-5.29189c0.57847,0.02827 1.2041,0.04497 1.77627,0.10049l0.16699,0.11851c1.18096,0.85049 1.80527,1.56958 1.32788,3.1084c-1.01133,0.77329 -1.89844,-1.37725 -3.16743,-1.14155c-0.54419,0.60747 -0.25254,2.46665 0.44722,3.02637c2.85791,2.28574 5.47251,-1.07651 4.87002,-4.03667c-0.64336,-3.16128 -3.34277,-4.82402 -6.51167,-4.03975c-5.14907,1.27427 -5.96411,9.12598 -2.42271,12.46494c4.91792,4.57119 13.47891,4.30693 19.4896,2.45757c3.9668,-1.22065 7.77539,-3.24917 11.14453,-5.62632c6.75879,-4.87002 15.92871,-14.51572 19.81201,-21.87187c0.21387,-0.41191 0.41309,-0.83203 0.59473,-1.25918c-0.52881,-1.02788 -0.67676,-1.37461 -1.48975,-2.22363c-7.77393,6.62622 -23.68652,10.67461 -33.23437,6.22075c-0.58535,0.49512 -2.2021,1.96641 -2.82979,2.19888c-1.30444,-1.3374 1.25698,-5.89614 -5.83975,-2.18188c0.28843,-1.24922 0.49658,-2.19639 0.93545,-3.40474c-2.19536,-1.24336 -3.0208,-1.27471 -5.52935,-1.51479c0.84141,-0.86572 1.90195,-1.91074 2.68052,-2.82144l-0.10693,-0.16289c-1.26753,-1.89258 -3.13989,-2.2002 -3.59502,-3.43066c0.40078,-0.89985 2.30845,-0.89473 2.43003,-1.52314c0.22236,-1.14946 -1.45444,-4.13408 -1.82358,-5.27593c1.09819,0.04292 3.05977,0.36562 3.93867,-0.17988c0.58169,-0.68936 0.32432,-3.86104 0.35742,-5.04463c1.38267,0.75278 2.2229,1.38149 3.4793,2.1252c1.30869,-1.43599 1.50615,-2.50078 2.5021,-3.89282c0.59912,0.89048 2.11538,3.44707 2.93276,3.68804l0.2937,-0.17607l2.85073,-2.13618c0.61816,4.05879 -1.19824,6.62432 4.49414,6.26968c0.26514,1.14727 -2.95752,3.47739 -2.36133,5.08374c0.33984,0.91274 1.40479,1.70977 1.98486,2.60859c-2.82568,0.95684 -7.37241,2.76284 -10.22695,1.35674c-3.03032,-1.49268 -3.34497,-6.69141 0.42905,-7.65571c0.21768,-0.05728 0.43623,-0.1106 0.65566,-0.16011l0.2105,0.06724c0.97822,0.31963 1.70156,0.60117 2.15684,1.5835c0.31201,0.67529 0.38818,1.4814 -0.13799,2.05298c-1.44932,0.23833 -1.94282,-1.38662 -3.21357,-0.93589c-1.39365,2.1542 1.74741,3.94995 3.17241,3.32769c3.96431,-1.73101 2.80269,-7.22241 -1.02466,-8.78906c-1.40405,-0.57422 -2.98506,-0.52954 -4.35454,0.12305c-3.84199,1.78462 -4.63535,7.0897 -2.90962,10.6062c1.62861,3.31802 5.33569,4.71753 8.61445,5.73691c8.93994,3.03047 17.93701,1.76309 26.25146,-2.46357c1.57471,-0.80083 3.49512,-1.91924 4.89551,-3.03003c-7.05176,-2.88062 -11.23975,-4.27251 -16.88672,-10.15137c-1.72559,-1.79561 -3.65479,-4.22856 -5.41699,-5.8333c-1.30225,-0.23467 -1.87793,-0.31978 -3.22852,-0.28022l0.10693,-0.17432c0.72656,-1.14946 1.8501,-1.91807 1.83105,-2.9354c-0.66943,-1.70479 -3.44971,-2.10835 -3.55078,-3.5231c0.82471,-1.07549 2.45654,-1.33857 2.29102,-2.65137c-0.17432,-1.39556 -2.0332,-3.02607 -1.80762,-4.25669c1.16748,-0.65361 2.66309,0.5165 3.71338,-0.32095c0.30029,-1.10728 -0.06885,-3.9498 -0.17432,-5.23213c0.90088,0.62314 1.78711,1.26621 2.66016,1.92891c0.66797,-0.29868 1.14551,-0.48677 1.76074,-0.89575c0.45996,-1.15122 0.97559,-2.87432 1.48828,-3.85283c1.04297,1.30488 1.88818,2.81074 3.20947,3.66577c1.57324,-1.43936 1.6377,-1.90239 3.59033,-3.04043c-0.14062,1.87354 -0.67383,5.64331 2.0918,5.70674c0.80127,0.01831 1.67285,-0.33545 2.42432,-0.10767c0.3501,0.36255 0.24463,0.15044 0.30322,0.66855c-0.52734,1.46118 -2.02881,3.0022 -1.4707,4.36128c0.8335,0.92563 1.89404,0.79028 2.32324,1.5835c-0.22559,1.9021 -3.22559,1.87573 -3.26807,3.63926c-0.02197,0.86001 0.98584,2.88179 1.26709,3.86279c-1.06787,-0.38936 -2.88867,-0.81899 -4.06494,-0.78677c-4.8999,0.13433 -8.73047,-2.36675 -7.35205,-7.78887c0.7998,-3.14795 5.1123,-3.19629 6.25342,-0.18882c0.42041,0.9624 0.28564,3.29795 -1.33594,2.17061c-0.76318,-0.53042 -0.46143,-2.22129 -1.70215,-2.44658c-0.51562,0.21006 -1.09717,0.57495 -1.2627,1.12046c-0.50684,1.67329 0.07324,3.51138 1.83984,4.08193c2.12988,0.68789 3.88477,-0.38306 4.61719,-2.43193c0.56689,-1.75854 0.375,-3.67354 -0.49805,-5.29614c-1.56738,-2.90933 -5.45801,-3.75806 -8.21924,-2.04683c-4.83545,2.93818 -4.04443,9.64673 -1.3667,13.76572c3.09229,4.65117 7.53955,8.74058 12.36035,11.57051c2.79346,1.59126 6.24463,2.90596 9.20215,4.06055c3.47461,-4.10361 1.88086,-10.52256 0.07471,-14.99941c-1.61865,-4.01572 -2.9502,-8.33042 -4.229,-12.48574c-0.20215,-0.65977 -1.02979,-1.76763 -1.35937,-2.45098c0.84961,-0.63032 1.55127,-0.94995 1.7666,-1.95293c0.37354,-1.75005 -1.4751,-3.67412 -1.00195,-4.98398c0.75732,-0.46626 2.2793,0.31025 3.04834,0.64644c1.12646,-1.9103 1.05762,-3.51108 1.24951,-5.70483c1.12793,0.88696 1.92334,1.60913 2.896,2.67773c1.54395,-1.37153 2.06396,-2.39531 3.14355,-4.13774c1.68164,4.51318 2.18262,5.11392 5.90625,1.73745c0.22412,1.14316 0.6416,5.21865 1.16895,5.69854c1.2627,0.57979 2.3833,-0.79775 3.12891,0.20068c0.17578,1.43335 -1.19678,3.58799 -1.69629,5.17808c0.646,0.93647 1.81641,1.95527 1.82666,2.80869c-0.6416,0.53965 -2.14453,0.78765 -3.30322,1.60708c0.02783,1.25317 0.22119,3.14341 -0.33838,4.20234c-1.69629,1.15225 -3.51709,-4.21567 -6.62695,2.89731c-0.06299,0.14297 -0.12305,0.28755 -0.18018,0.43359c-0.39697,-1.44302 -0.83789,-3.31362 -1.35498,-4.61045c-0.9624,-2.40557 -3.21094,-5.2979 -1.58643,-7.98311c1.32129,-2.18188 3.42627,-2.39619 5.45654,-1.32598c0.64307,1.00444 1.26416,1.91807 1.0415,3.19307c-0.13916,0.79482 -0.99902,1.89858 -1.85742,1.80732c-1.03418,-1.04575 0.13623,-3.19966 -1.65527,-3.33926c-0.85986,-0.0668 -1.43701,1.53354 -1.67139,2.16343c1.89258,4.8479 5.85059,4.23896 7.4707,-0.25664c0.58008,-1.59331 0.48633,-3.35449 -0.26074,-4.8769c-2.66162,-5.29819 -11.00684,-3.84595 -12.21094,2.02559c-2.02734,9.89443 7.79883,18.56235 5.7041,28.50425c-0.44531,1.97051 -1.27734,3.28154 -2.3335,4.93755c1.08691,1.11021 1.93066,2.02485 3.20801,2.94126c1.19531,-1.00269 3.07764,-3.48032 4.01367,-3.96592c3.00146,-1.61001 6.27539,-2.42329 9.26807,-4.09966c6.47461,-3.67163 14.57373,-10.59038 15.71191,-18.37339c0.55078,-3.77124 -1.79443,-7.74932 -5.99561,-8.19521c-5.05664,-0.53672 -8.69824,6.20537 -5.18994,9.6082c0.68848,0.6728 1.62891,1.02422 2.58984,0.96797c1.82227,-0.10957 2.57959,-1.49854 2.9502,-3.0895c-0.20361,-0.86235 -0.30322,-1.72339 -1.06934,-2.21865c-1.20117,0.06797 -1.39746,1.81128 -2.55615,2.50488c-0.51123,0.05215 -0.27686,0.09814 -0.72656,-0.13037c-0.33545,-0.53057 -0.31934,-1.32319 -0.17139,-1.91733c0.39258,-1.59463 1.87939,-2.0521 3.28418,-2.37378c0.93604,0.25415 2.22656,0.54844 2.62793,1.54746c3.58447,8.9231 -5.80078,7.83267 -10.77979,9.12129c0.30176,-1.17231 0.5874,-2.42241 1.03711,-3.53936c-1.1543,-1.52065 -2.44629,-1.7959 -3.68994,-3.32798c6.84961,-2.86113 -0.86865,-4.69629 1.56885,-6.80054c1.11328,-0.11543 2.41553,1.06245 3.50684,-0.24404c1.01953,-1.21904 0.87744,-3.82324 0.90967,-5.42563c5.50195,3.8855 3.68848,3.27554 7.25244,-1.3333c0.26807,0.99287 0.61816,2.10894 0.84521,3.09771c0.8042,3.50215 2.6748,1.86592 4.68457,0.38291c-0.01318,4.48389 -1.4165,6.47681 3.91992,5.30713c-0.54346,1.06816 -2.45801,4.33228 -2.27197,5.15581c0.8584,0.91597 2.12988,1.12456 2.28809,2.12358c-0.42334,1.27515 -2.40088,0.80054 -3.74121,3.85444c0.54492,0.62329 1.3374,1.38809 1.64795,2.08652c-0.08936,1.05366 -2.85205,0.94644 -3.67383,1.66963c-1.02246,0.90073 -1.85303,1.90093 -2.76416,2.90332c-1.12354,1.22666 -2.2793,2.423 -3.46582,3.58755c-2.90771,2.81089 -6.31934,5.04917 -10.05615,6.59751c-1.74316,0.7355 -3.72656,1.43042 -5.41553,2.21074c8.53857,5.55103 18.42188,8.34199 28.57324,6.10928c6.21387,-1.36641 14.25732,-4.3519 12.58301,-12.33472c-0.7251,-3.45776 -3.81445,-6.10356 -7.43408,-5.16123c-1.4751,0.39053 -2.72021,1.37505 -3.44092,2.7189c-1.80322,3.29546 -0.21973,7.11768 3.82764,6.12847c1.50586,-0.36797 2.21191,-3.39346 0.7998,-3.97603c-1.33008,0.28008 -1.70215,1.85376 -2.93555,1.61118c-1.25977,-1.40186 0.5127,-3.02139 1.73877,-3.67017c0.55078,0.00498 1.22754,-0.00894 1.7666,0.01802c1.07666,0.68672 2.12256,1.58364 2.28809,2.85894c0.67236,5.17266 -4.3623,6.31743 -8.354,5.11904c-1.37695,-0.41382 -2.63965,-0.44634 -3.80713,-1.25303c-0.03809,-0.6958 1.2334,-1.94824 1.70361,-2.57695c-0.93896,-3.07251 -1.27441,-2.58252 -3.00732,-4.79209c1.62891,-0.5127 2.1123,-0.54873 3.81885,-0.4957c0.2959,-0.36768 0.64746,-0.83408 0.97998,-1.15078c0.01611,-1.66494 0.00879,-3.39492 0.07471,-5.05371c1.00049,0.70034 2.4917,2.04272 3.54492,2.06968c0.93018,-0.3375 2.14453,-2.72402 2.87109,-3.72905c0.51416,1.04004 1.50293,3.63955 2.37158,3.93413c1.19531,-0.11528 2.22363,-1.30005 3.26514,-1.92847c0.14648,1.41973 0.23291,4.23618 0.87158,5.31313c1.11035,0.61143 3.33105,-0.82559 3.65625,0.08276c-0.29004,1.73452 -2.42432,3.58447 -1.79736,4.76455c0.35596,0.66943 2.00098,1.0125 2.4375,1.64707c-0.40283,1.32437 -4.19678,2.48745 -3.5874,3.97954c0.3252,0.79966 2.13428,1.1748 2.00391,2.31064c-1.17187,1.13687 -4.27295,0.13887 -5.03467,1.64883c0.06592,1.23735 0.39404,2.29204 0.49219,3.51284c-1.11475,-0.4708 -3.39844,-1.71606 -4.42969,-1.43687c-1.01074,0.75835 -0.99023,2.60859 -1.11914,3.79189c-1.02686,-0.73418 -2.05225,-1.48184 -3.1084,-2.17222c-2.80811,0.83804 -6.37207,1.67065 -9.30469,1.69058c-8.31592,0.05654 -17.56055,-2.68843 -24.17871,-7.80044c-0.77197,0.8918 -1.06934,1.30444 -1.70654,2.3001c0.72217,1.81479 3.01318,4.74961 4.24219,6.37969c6.27686,8.27197 13.86035,16.19663 23.4668,20.54561c6.05713,2.74189 14.27051,3.8584 20.67627,1.44639c4.84863,-1.82622 7.11182,-6.65918 5.11816,-11.53198c-1.88672,-4.6125 -8.90479,-4.6478 -10.45898,0.2603c-0.73828,2.29233 -0.01318,4.42456 2.42725,5.01855c1.69043,0.41147 3.2373,-0.50903 3.28564,-2.2437c0.01465,-0.50669 0.09229,-0.68833 -0.11865,-1.17583c-1.36523,-1.07944 -2.34961,1.32759 -3.62842,0.83101c-0.73682,-0.946 0.41309,-2.38975 1.19824,-2.84839c1.69189,-0.98965 3.84814,0.37749 4.28613,2.09312c0.57568,2.24766 -0.34717,4.32129 -2.33496,5.41494c-2.69385,1.4896 -5.11963,-0.46143 -7.53662,-1.51743c-0.71484,-0.31377 -1.57031,-0.58799 -2.32617,-0.86924c0.60205,-1.55464 1.23779,-1.98369 2.15479,-3.3397c-0.43945,-0.95977 -2.04346,-3.59795 -1.90869,-4.28525c1.0415,-0.8061 2.4126,0.56558 3.73682,-0.32271c0.80859,-1.19473 0.63721,-3.99214 0.95947,-5.71348c3.6709,4.01455 3.35156,3.35215 6.24756,-0.70781l0.12158,0.19189c0.34717,0.55474 0.87305,1.50894 1.05762,2.11377c1.11475,3.6561 2.38037,1.70684 4.85889,0.87656c0.2124,4.56094 -2.02734,4.6834 3.44385,5.16855c-2.42139,4.30151 -3.70898,3.64746 0.30176,6.71572c-1.45166,1.06509 -2.90332,2.30259 -4.31689,3.3104c0.47021,0.69229 1.396,1.88496 1.65674,2.54502c-1.15137,1.19443 -5.1416,-0.58491 -4.88965,1.85083c0.06152,0.60015 0.1626,1.82446 0.00146,2.32822c-1.33301,1.20513 -2.63965,-1.60664 -4.29492,-1.28789c-0.88916,0.79468 -0.76758,2.67993 -0.79102,3.82163c-0.96533,-0.81152 -2.22217,-2.17896 -3.06885,-2.82437c-2.77588,-0.16128 -5.87988,0.14985 -8.56641,-0.29385c-10.11621,-1.67124 -19.2627,-8.51089 -25.93799,-15.99844c-3.63428,-4.14023 -7.1001,-8.4252 -10.39014,-12.84478c0.32813,2.37231 0.1582,6.06841 0.14209,8.5459l-0.17139,17.37715l0.15967,58.45532c-0.00146,5.7832 -0.01025,11.56934 -0.01758,17.35254c-0.00293,2.74512 2.05957,5.97656 3.30908,8.4624l7.37402,14.58691c1.19385,2.38477 5.15771,11.1958 6.57275,12.38232c1.31543,1.10156 3.49072,1.59375 5.15771,1.39893c1.0166,-0.11865 1.96143,-0.46289 2.84619,-0.96826c1.65234,-0.94336 3.11572,-2.3291 4.53809,-3.58301c6.12012,-5.47119 11.67627,-11.5415 16.58789,-18.11865c14.33643,-18.85693 22.2627,-42.12158 24.06885,-65.625c0.54346,-7.06055 0.50391,-14.96191 0.50244,-22.08457l-0.00293,-25.58584l-0.01025,-62.72959c-1.06934,-0.09009 -2.10498,-0.15103 -3.17871,-0.17813c-35.16504,-0.8896 -70.95117,-9.62256 -101.12988,-28.04487c-1.16895,-0.71353 -2.34229,-1.40698 -3.50537,-2.12856c-5.50811,3.49937 -11.18628,6.72378 -17.01357,9.66138c-20.84209,10.36348 -45.77461,17.06836 -68.90361,19.50571c-6.87876,0.72495 -14.85103,1.10786 -21.82676,1.27705z" fill="#9eac9e"/></g></svg></svg>